<svg id="Layer_1" data-name="Layer 1" xmlns="http://www.w3.org/2000/svg" viewBox="0 0 215 153.02"><defs><style>.cls-1{fill:#fff;}</style></defs><title>Artboard 6</title><path class="cls-1" d="M6.45,150.11v-21.6H2.5v-1.13h4v-3.32A7.14,7.14,0,0,1,8,119.15a5.53,5.53,0,0,1,4.36-1.76,9,9,0,0,1,2.69.36l-.17,1.09a9,9,0,0,0-2.5-.31A4.49,4.49,0,0,0,8.88,120a6.07,6.07,0,0,0-1.29,4.15v3.24h6v1.13h-6v21.6Z"/><path class="cls-1" d="M26,150.53a9.09,9.09,0,0,1-5.05-1.48A10.13,10.13,0,0,1,17.29,145a12.51,12.51,0,0,1-1.3-5.73v-.95a13.19,13.19,0,0,1,1.26-5.78,10,10,0,0,1,3.47-4.09A8.5,8.5,0,0,1,25.53,127a7.94,7.94,0,0,1,6.22,2.72,10.29,10.29,0,0,1,2.42,7.12V138h-17v1.23a11.37,11.37,0,0,0,1.17,5.13,9.09,9.09,0,0,0,3.22,3.7A7.89,7.89,0,0,0,26,149.4a9,9,0,0,0,3.9-.77,8,8,0,0,0,2.85-2.34l.79.56A8.55,8.55,0,0,1,26,150.53Zm-.42-22.44a7.41,7.41,0,0,0-5.63,2.47,10.46,10.46,0,0,0-2.71,6.29H33v-.27a9.52,9.52,0,0,0-1-4.3,7.52,7.52,0,0,0-2.69-3.09A7,7,0,0,0,25.53,128.09Z"/><path class="cls-1" d="M47.64,150.53a9.15,9.15,0,0,1-5.06-1.48A10.18,10.18,0,0,1,39,145a12.51,12.51,0,0,1-1.3-5.73v-.95a13.19,13.19,0,0,1,1.26-5.78,10,10,0,0,1,3.46-4.09A8.52,8.52,0,0,1,47.21,127a7.94,7.94,0,0,1,6.22,2.72,10.25,10.25,0,0,1,2.42,7.12V138h-17v1.23A11.37,11.37,0,0,0,40,144.35a9.07,9.07,0,0,0,3.21,3.7,7.94,7.94,0,0,0,4.45,1.35,9,9,0,0,0,3.89-.77,8,8,0,0,0,2.85-2.34l.8.56A8.56,8.56,0,0,1,47.64,150.53Zm-.43-22.44a7.41,7.41,0,0,0-5.63,2.47,10.52,10.52,0,0,0-2.71,6.29H54.72v-.27a9.66,9.66,0,0,0-1-4.3,7.59,7.59,0,0,0-2.69-3.09A7,7,0,0,0,47.21,128.09Z"/><path class="cls-1" d="M60.1,138.51q0-5.44,2.29-8.5A7.41,7.41,0,0,1,68.67,127a8.77,8.77,0,0,1,4.53,1.16,8.47,8.47,0,0,1,3.18,3.45V117.84h1.14v32.27H76.38v-3.63a8,8,0,0,1-3.17,3,9.67,9.67,0,0,1-4.58,1.06,7.3,7.3,0,0,1-6.24-3.13q-2.3-3.14-2.29-8.59Zm1.17.44a13.43,13.43,0,0,0,1.91,7.64,6.2,6.2,0,0,0,5.43,2.81,8.92,8.92,0,0,0,4.81-1.25,7.45,7.45,0,0,0,3-3.67V133.83q-1.95-5.75-7.73-5.74a6.27,6.27,0,0,0-5.43,2.75Q61.27,133.6,61.27,139Z"/><path class="cls-1" d="M102.08,139c0,3.55-.76,6.36-2.29,8.45a7.32,7.32,0,0,1-6.24,3.13A9.64,9.64,0,0,1,89,149.47a8,8,0,0,1-3.18-2.95v3.59H84.66V117.84h1.13v13.67a8.49,8.49,0,0,1,3.17-3.4A8.8,8.8,0,0,1,93.51,127,7.42,7.42,0,0,1,99.79,130q2.29,3.06,2.29,8.59Zm-1.18-.44A13.19,13.19,0,0,0,99,130.85a6.28,6.28,0,0,0-5.43-2.76,7.94,7.94,0,0,0-4.85,1.47,8.38,8.38,0,0,0-2.89,4.37v10.42a7.5,7.5,0,0,0,2.89,3.73,8.67,8.67,0,0,0,4.89,1.32A6.19,6.19,0,0,0,99,146.6Q100.9,143.81,100.9,138.51Z"/><path class="cls-1" d="M122.94,150.11a15.79,15.79,0,0,1-.42-4.16,9.07,9.07,0,0,1-3.67,3.38,11.4,11.4,0,0,1-5.28,1.2,7.34,7.34,0,0,1-5.07-1.71,5.7,5.7,0,0,1-1.92-4.47,5.78,5.78,0,0,1,2.82-5,13.66,13.66,0,0,1,7.51-1.92h5.61V134.1a5.56,5.56,0,0,0-1.79-4.43,7.51,7.51,0,0,0-5.14-1.58,8.25,8.25,0,0,0-5.19,1.6,4.8,4.8,0,0,0-2.08,3.95l-1.14,0a5.84,5.84,0,0,1,2.44-4.7,9.32,9.32,0,0,1,6-1.94,8.75,8.75,0,0,1,5.84,1.84,6.62,6.62,0,0,1,2.23,5.18v10.87a14.34,14.34,0,0,0,.59,5.08v.19Zm-9.37-.71a10.26,10.26,0,0,0,5.5-1.43,8.88,8.88,0,0,0,3.45-4v-5.4h-5.25q-4.87,0-7.46,1.94a4.75,4.75,0,0,0-2.1,3.93,4.52,4.52,0,0,0,1.66,3.53A6.2,6.2,0,0,0,113.57,149.4Z"/><path class="cls-1" d="M132.38,150.11h-1.14V117.84h1.14Z"/><path class="cls-1" d="M141.25,150.11h-1.14V117.84h1.14Z"/><path class="cls-1" d="M147,138.3a13.36,13.36,0,0,1,1.25-5.85,9.69,9.69,0,0,1,3.53-4,9.57,9.57,0,0,1,13.83,4,13.1,13.1,0,0,1,1.29,5.82v1a13.38,13.38,0,0,1-1.24,5.87,9.54,9.54,0,0,1-3.52,4,9.38,9.38,0,0,1-5.16,1.45,9.44,9.44,0,0,1-8.7-5.43,13.31,13.31,0,0,1-1.28-5.79Zm1.14.88a11.89,11.89,0,0,0,1.12,5.2,8.81,8.81,0,0,0,3.13,3.69A8.18,8.18,0,0,0,157,149.4a7.9,7.9,0,0,0,6.34-2.92,11.35,11.35,0,0,0,2.45-7.53v-.65a11.82,11.82,0,0,0-1.14-5.17,9,9,0,0,0-3.14-3.71,8,8,0,0,0-4.55-1.33,7.86,7.86,0,0,0-6.34,3,11.29,11.29,0,0,0-2.46,7.46Z"/><path class="cls-1" d="M170.66,138.3a13.36,13.36,0,0,1,1.25-5.85,9.69,9.69,0,0,1,3.53-4,9.57,9.57,0,0,1,13.83,4,13.1,13.1,0,0,1,1.29,5.82v1a13.38,13.38,0,0,1-1.24,5.87,9.54,9.54,0,0,1-3.52,4,9.38,9.38,0,0,1-5.16,1.45A9.41,9.41,0,0,1,172,145.1a13.31,13.31,0,0,1-1.29-5.79Zm1.14.88a11.89,11.89,0,0,0,1.12,5.2,8.88,8.88,0,0,0,3.13,3.69,8.18,8.18,0,0,0,4.59,1.33,7.9,7.9,0,0,0,6.34-2.92,11.35,11.35,0,0,0,2.45-7.53v-.65a11.82,11.82,0,0,0-1.14-5.17,9,9,0,0,0-3.14-3.71,8,8,0,0,0-4.55-1.33,7.87,7.87,0,0,0-6.34,3,11.29,11.29,0,0,0-2.46,7.46Z"/><path class="cls-1" d="M197.2,132.67a9.6,9.6,0,0,1,3.28-4.18,8.12,8.12,0,0,1,4.79-1.54q3.66,0,5.43,2.07t1.8,6.26v14.83h-1.13V135.25q0-3.66-1.5-5.41a5.74,5.74,0,0,0-4.66-1.75,7.1,7.1,0,0,0-5.1,2.09,10.69,10.69,0,0,0-2.91,5.38v14.55h-1.13V127.38h1.13Z"/><path id="STRUCTURE" class="cls-1" d="M130.51,12.06a32.27,32.27,0,0,0-22.79-9.57h-.5A32.44,32.44,0,0,0,86.14,59.34,47.54,47.54,0,0,1,99.65,79.67l.29.83a.88.88,0,0,0,.81.6l2,8.24a2.73,2.73,0,0,0-2.71,2.73v9.36a2.74,2.74,0,0,0,2.73,2.74h9.36a2.74,2.74,0,0,0,2.73-2.74V92.07a2.73,2.73,0,0,0-2.71-2.73l2-8.24a.88.88,0,0,0,.81-.6l.29-.83a49.49,49.49,0,0,1,13.81-20.59,32.44,32.44,0,0,0,1.35-47Zm-23-7.77h0c.26,0,1,.25,1.85,2.05a28.29,28.29,0,0,1,2.08,6.55,109.72,109.72,0,0,1,2,22c0,8.87-.82,17.35-2.25,23.26a123.3,123.3,0,0,0-2.5,14.94h-2.36a111.84,111.84,0,0,0-2.44-14.68c-1.47-5.93-2.31-14.5-2.31-23.52a109.39,109.39,0,0,1,2-22.07C105,6.1,106.73,4.29,107.5,4.29ZM98.88,73.13A48.75,48.75,0,0,0,87.33,58,30.71,30.71,0,0,1,98.53,5.64c-7.07,5.24-12,16.44-12,29.29,0,9.28,2.56,18.12,7,24.27a49.63,49.63,0,0,1,6.87,13.93ZM95,58.14c-4.24-5.85-6.68-14.31-6.68-23.21,0-8.14,2-15.83,5.68-21.65,2.91-4.62,6.55-7.6,10.48-8.6a26,26,0,0,0-2.7,7.79,111.13,111.13,0,0,0-2,22.46c0,9.15.86,17.89,2.36,24a109.6,109.6,0,0,1,2.38,14.25h-2.19A51.94,51.94,0,0,0,95,58.14Zm11.58,23v8.23h-1.94l-2-8.23Zm3.74,8.23H108.4V81.11h4Zm2.36-16.21h-2.2a116.78,116.78,0,0,1,2.44-14.51,108.74,108.74,0,0,0,2.29-23.69,111.28,111.28,0,0,0-2-22.42,25.57,25.57,0,0,0-2.71-7.84c9.13,2.33,16.15,15,16.15,30.26,0,8.76-2.37,17.12-6.5,23A55.53,55.53,0,0,0,112.7,73.13ZM128,57.73a52.34,52.34,0,0,0-11.8,15.4h-1.56a53.36,53.36,0,0,1,7-14.2c4.34-6.13,6.83-14.88,6.83-24,0-8.56-2.12-16.62-6-22.71a24,24,0,0,0-5.91-6.57A30.65,30.65,0,0,1,128,57.73Z"/></svg>