<svg id="Layer_1" data-name="Layer 1" xmlns="http://www.w3.org/2000/svg" xmlns:xlink="http://www.w3.org/1999/xlink" viewBox="0 0 200 200"><defs><style>.cls-1{fill:#fff;stroke-miterlimit:10;stroke-width:2.02px;stroke:url(#New_Gradient_Swatch_3);}.cls-2{fill:url(#New_Gradient_Swatch_3-2);}</style><linearGradient id="New_Gradient_Swatch_3" x1="8.99" y1="100" x2="191.01" y2="100" gradientUnits="userSpaceOnUse"><stop offset="0" stop-color="#ffac1b"/><stop offset="1" stop-color="#e10b90"/></linearGradient><linearGradient id="New_Gradient_Swatch_3-2" x1="55.82" x2="144.18" xlink:href="#New_Gradient_Swatch_3"/></defs><title>Artboard 1</title><circle class="cls-1" cx="100" cy="100" r="90"/><path id="STRUCTURE" class="cls-2" d="M131.34,43.8a43.91,43.91,0,0,0-31-13h-.68a44.17,44.17,0,0,0-28.71,77.42,64.65,64.65,0,0,1,18.4,27.69L89.7,137a1.2,1.2,0,0,0,1.11.82l2.79,11.23a3.72,3.72,0,0,0-3.7,3.72v12.75a3.73,3.73,0,0,0,3.73,3.72h12.74a3.73,3.73,0,0,0,3.73-3.72V152.77a3.72,3.72,0,0,0-3.7-3.72l2.79-11.23a1.2,1.2,0,0,0,1.11-.82l.39-1.12a67.37,67.37,0,0,1,18.81-28.06,44.17,44.17,0,0,0,1.84-64ZM100,33.21h0c.36,0,1.29.34,2.53,2.79a39.85,39.85,0,0,1,2.83,8.92,150.28,150.28,0,0,1,2.67,30c0,12.08-1.11,23.63-3,31.68A164.56,164.56,0,0,0,101.61,127H98.39a153.38,153.38,0,0,0-3.32-20c-2-8.07-3.14-19.75-3.14-32,0-11.33,1-22,2.71-30.06C96.63,35.67,99,33.22,100,33.21ZM88.26,127a66.24,66.24,0,0,0-15.73-20.62A41.82,41.82,0,0,1,87.78,35.05c-9.63,7.13-16.33,22.39-16.33,39.89,0,12.63,3.49,24.68,9.57,33.05a67.85,67.85,0,0,1,9.35,19ZM83,106.55c-5.79-8-9.1-19.48-9.1-31.61,0-11.09,2.74-21.56,7.73-29.49,4-6.29,8.93-10.34,14.27-11.71-1.4,2.26-2.63,5.81-3.67,10.62a151.44,151.44,0,0,0-2.77,30.58c0,12.47,1.17,24.36,3.21,32.62A148.72,148.72,0,0,1,95.93,127h-3A70.8,70.8,0,0,0,83,106.55Zm15.76,31.28V149H96.13l-2.79-11.21Zm5.1,11.21h-2.64V137.83h5.43ZM107.08,127h-3a161.71,161.71,0,0,1,3.32-19.76c2-8.23,3.13-20,3.13-32.26,0-11.51-1-22.35-2.74-30.54q-1.56-7.26-3.69-10.67c12.44,3.17,22,20.49,22,41.21,0,11.93-3.22,23.32-8.85,31.26A75.73,75.73,0,0,0,107.08,127Zm20.78-21a71,71,0,0,0-16.08,21h-2.12a72.78,72.78,0,0,1,9.58-19.34c5.91-8.34,9.31-20.26,9.31-32.68,0-11.65-2.89-22.64-8.13-30.93a33,33,0,0,0-8-8.94A41.75,41.75,0,0,1,127.86,106Z"/></svg>