<svg id="Layer_1" data-name="Layer 1" xmlns="http://www.w3.org/2000/svg" viewBox="0 0 131.26 131.26"><defs><style>.cls-1{fill:#f2f2f2;stroke:#b3b3b3;stroke-miterlimit:10;stroke-width:0.4px;}.cls-2{font-size:14.25px;fill:#999;font-family:Roboto-LightItalic, Roboto;font-style:italic;}.cls-3{letter-spacing:-0.01em;}.cls-4{fill:#ccc;}</style></defs><title>group_icon</title><circle class="cls-1" cx="66.6" cy="68.27" r="57.4"/><text class="cls-2" transform="translate(37.77 97.58) scale(0.89 1)">g<tspan class="cls-3" x="7.74" y="0">r</tspan><tspan x="12.32" y="0">oup icon</tspan></text><path class="cls-4" d="M66.6,52.15a8.52,8.52,0,1,0,8.53,8.52,8.51,8.51,0,0,0-8.53-8.52Zm22.73-8.53H82.51A2.51,2.51,0,0,1,80.27,42L78.5,36.72a2.52,2.52,0,0,0-2.24-1.62H56.94a2.52,2.52,0,0,0-2.24,1.62L52.94,42a2.53,2.53,0,0,1-2.25,1.61H43.87a5.7,5.7,0,0,0-5.68,5.68V74.87a5.7,5.7,0,0,0,5.68,5.69H89.33A5.7,5.7,0,0,0,95,74.87V49.3a5.7,5.7,0,0,0-5.68-5.68ZM66.6,74.87a14.21,14.21,0,1,1,14.21-14.2A14.2,14.2,0,0,1,66.6,74.87ZM87.34,53.28a2,2,0,1,1,2-2,2,2,0,0,1-2,2Zm0,0"/></svg>