<svg id="Layer_1" data-name="Layer 1" xmlns="http://www.w3.org/2000/svg" xmlns:xlink="http://www.w3.org/1999/xlink" viewBox="0 0 548 200"><defs><style>.cls-1{fill:url(#linear-gradient);}.cls-2{fill:url(#linear-gradient-2);}.cls-3{fill:url(#linear-gradient-3);}.cls-4{fill:url(#linear-gradient-4);}.cls-5{fill:url(#linear-gradient-5);}.cls-6{fill:url(#linear-gradient-6);}.cls-7{fill:url(#linear-gradient-7);}.cls-8{fill:url(#linear-gradient-8);}.cls-9{fill:url(#linear-gradient-9);}.cls-10{fill:url(#linear-gradient-10);}.cls-11{fill:url(#linear-gradient-11);}.cls-12{stroke:#fff;stroke-miterlimit:10;stroke-width:0.66px;fill:url(#New_Gradient_Swatch_3);}.cls-13{fill:#f2f2f2;}</style><linearGradient id="linear-gradient" x1="172.75" y1="109.76" x2="145.92" y2="82.93" gradientUnits="userSpaceOnUse"><stop offset="0" stop-color="#480b90"/><stop offset="1" stop-color="#a10b90"/></linearGradient><linearGradient id="linear-gradient-2" x1="201.62" y1="121.08" x2="173.78" y2="93.24" xlink:href="#linear-gradient"/><linearGradient id="linear-gradient-3" x1="239.75" y1="121.08" x2="211.91" y2="93.24" xlink:href="#linear-gradient"/><linearGradient id="linear-gradient-4" x1="287.34" y1="118.12" x2="256.27" y2="87.04" xlink:href="#linear-gradient"/><linearGradient id="linear-gradient-5" x1="317.82" y1="122.29" x2="278.4" y2="82.87" xlink:href="#linear-gradient"/><linearGradient id="linear-gradient-6" x1="362.62" y1="124.99" x2="331.04" y2="93.41" xlink:href="#linear-gradient"/><linearGradient id="linear-gradient-7" x1="388.82" y1="113.09" x2="359.45" y2="83.72" xlink:href="#linear-gradient"/><linearGradient id="linear-gradient-8" x1="404.41" y1="113.09" x2="375.04" y2="83.72" xlink:href="#linear-gradient"/><linearGradient id="linear-gradient-9" x1="432.24" y1="120.71" x2="404.4" y2="92.87" xlink:href="#linear-gradient"/><linearGradient id="linear-gradient-10" x1="473.88" y1="120.71" x2="446.04" y2="92.87" xlink:href="#linear-gradient"/><linearGradient id="linear-gradient-11" x1="517.27" y1="125.51" x2="482.83" y2="91.08" xlink:href="#linear-gradient"/><linearGradient id="New_Gradient_Swatch_3" x1="27.33" y1="97.13" x2="127.7" y2="97.13" gradientUnits="userSpaceOnUse"><stop offset="0" stop-color="#ffac1b"/><stop offset="1" stop-color="#e10b90"/></linearGradient></defs><title>Artboard 2</title><path class="cls-1" d="M153.74,126.78v-38h-7v-2h7V81q0-5.53,2.79-8.63a9.75,9.75,0,0,1,7.66-3.08,15.8,15.8,0,0,1,4.73.63l-.29,1.92a15.93,15.93,0,0,0-4.4-.56A7.9,7.9,0,0,0,158,73.82c-1.51,1.71-2.27,4.15-2.27,7.3v5.69H166.3v2H155.73v38Z"/><path class="cls-2" d="M188,127.52a16,16,0,0,1-8.88-2.61,17.84,17.84,0,0,1-6.34-7.15,22,22,0,0,1-2.29-10.08V106a23.13,23.13,0,0,1,2.22-10.16,17.58,17.58,0,0,1,6.09-7.21,15,15,0,0,1,8.46-2.58,14,14,0,0,1,10.94,4.76q4.25,4.77,4.25,12.53v2.1h-30v2.18a20.13,20.13,0,0,0,2.05,9,16.14,16.14,0,0,0,5.66,6.51,13.91,13.91,0,0,0,7.81,2.36,15.79,15.79,0,0,0,6.85-1.34,13.92,13.92,0,0,0,5-4.12l1.4,1Q196.81,127.52,188,127.52Zm-.74-39.46a13.07,13.07,0,0,0-9.9,4.34,18.47,18.47,0,0,0-4.76,11.07h27.85V103a16.84,16.84,0,0,0-1.72-7.56A13.28,13.28,0,0,0,194,90,12.18,12.18,0,0,0,187.28,88.06Z"/><path class="cls-3" d="M226.15,127.52a16.07,16.07,0,0,1-8.89-2.61,17.74,17.74,0,0,1-6.33-7.15,22,22,0,0,1-2.3-10.08V106a23.13,23.13,0,0,1,2.22-10.16,17.6,17.6,0,0,1,6.1-7.21,14.94,14.94,0,0,1,8.46-2.58,14,14,0,0,1,10.93,4.76q4.24,4.77,4.25,12.53v2.1h-30v2.18a20,20,0,0,0,2.05,9,16.12,16.12,0,0,0,5.65,6.51,13.94,13.94,0,0,0,7.82,2.36,15.82,15.82,0,0,0,6.85-1.34,14,14,0,0,0,5-4.12l1.41,1Q234.94,127.52,226.15,127.52Zm-.74-39.46a13.07,13.07,0,0,0-9.9,4.34,18.54,18.54,0,0,0-4.77,11.07H238.6V103a17,17,0,0,0-1.72-7.56A13.35,13.35,0,0,0,232.15,90,12.23,12.23,0,0,0,225.41,88.06Z"/><path class="cls-4" d="M248.05,106.39q0-9.57,4-15a13.05,13.05,0,0,1,11-5.37,15.48,15.48,0,0,1,8,2,14.84,14.84,0,0,1,5.59,6.06V70h2v56.75h-2v-6.39a13.9,13.9,0,0,1-5.57,5.26,17,17,0,0,1-8.06,1.87,12.87,12.87,0,0,1-11-5.51q-4-5.51-4-15.11Zm2.07.77q0,8.5,3.36,13.43a10.86,10.86,0,0,0,9.53,4.93,15.58,15.58,0,0,0,8.46-2.2,13,13,0,0,0,5.21-6.44V98.15q-3.44-10.09-13.59-10.09a11,11,0,0,0-9.55,4.84Q250.12,97.74,250.12,107.16Z"/><path class="cls-5" d="M321.86,107.16q0,9.34-4,14.85a12.88,12.88,0,0,1-11,5.51,17,17,0,0,1-8.06-1.87,14.1,14.1,0,0,1-5.58-5.19v6.32h-2V70h2v24a14.86,14.86,0,0,1,5.56-6,15.55,15.55,0,0,1,8-2,13.07,13.07,0,0,1,11,5.37q4,5.39,4,15.09Zm-2.06-.77q0-8.61-3.42-13.47a11,11,0,0,0-9.55-4.86,13.89,13.89,0,0,0-8.52,2.59,14.62,14.62,0,0,0-5.08,7.68v18.33a13.15,13.15,0,0,0,5.08,6.55,15.23,15.23,0,0,0,8.59,2.31,10.85,10.85,0,0,0,9.53-4.91Q319.81,115.69,319.8,106.39Z"/><path class="cls-6" d="M358.55,126.78a27.88,27.88,0,0,1-.74-7.32,16,16,0,0,1-6.46,6,20,20,0,0,1-9.28,2.11,12.94,12.94,0,0,1-8.92-3,10.52,10.52,0,0,1,1.59-16.66q5-3.31,13.21-3.38h9.86V98.63a9.82,9.82,0,0,0-3.16-7.8c-2.1-1.84-5.11-2.77-9-2.77a14.56,14.56,0,0,0-9.13,2.81,8.48,8.48,0,0,0-3.65,6.95l-2-.08a10.21,10.21,0,0,1,4.29-8.27,16.31,16.31,0,0,1,10.49-3.4q6.47,0,10.27,3.23t3.92,9.11v19.1q0,6.57,1,8.94v.33Zm-16.48-1.26a17.87,17.87,0,0,0,9.66-2.51,15.5,15.5,0,0,0,6.08-7.06v-9.49h-9.24q-8.56,0-13.11,3.4a8.35,8.35,0,0,0-3.69,6.91,7.94,7.94,0,0,0,2.91,6.2A10.83,10.83,0,0,0,342.07,125.52Z"/><path class="cls-7" d="M375.14,126.78h-2V70h2Z"/><path class="cls-8" d="M390.73,126.78h-2V70h2Z"/><path class="cls-9" d="M400.81,106A23.34,23.34,0,0,1,403,95.73a16.9,16.9,0,0,1,6.21-7.11,16.52,16.52,0,0,1,9.07-2.55,16.42,16.42,0,0,1,15.23,9.49,23.31,23.31,0,0,1,2.28,10.24v1.77a23.61,23.61,0,0,1-2.18,10.31,16.86,16.86,0,0,1-6.19,7.09,16.54,16.54,0,0,1-9.07,2.55A16.52,16.52,0,0,1,403.07,118a23.24,23.24,0,0,1-2.26-10.18Zm2,1.55a21.12,21.12,0,0,0,2,9.14,15.69,15.69,0,0,0,5.51,6.49,14.32,14.32,0,0,0,8.07,2.32,13.86,13.86,0,0,0,11.14-5.13c2.87-3.43,4.3-7.83,4.3-13.23V106a20.78,20.78,0,0,0-2-9.09,15.76,15.76,0,0,0-5.53-6.52,14,14,0,0,0-8-2.35,13.84,13.84,0,0,0-11.16,5.21q-4.32,5.2-4.32,13.12Z"/><path class="cls-10" d="M442.45,106a23.47,23.47,0,0,1,2.19-10.29,17,17,0,0,1,6.21-7.11,16.54,16.54,0,0,1,9.07-2.55,16.45,16.45,0,0,1,15.24,9.49,23.17,23.17,0,0,1,2.27,10.24v1.77a23.47,23.47,0,0,1-2.18,10.31,16.73,16.73,0,0,1-6.19,7.09,16.52,16.52,0,0,1-9.07,2.55A16.52,16.52,0,0,1,444.7,118a23.1,23.1,0,0,1-2.25-10.18Zm2,1.55a21,21,0,0,0,2,9.14,15.67,15.67,0,0,0,5.5,6.49,14.34,14.34,0,0,0,8.07,2.32,13.86,13.86,0,0,0,11.14-5.13c2.87-3.43,4.31-7.83,4.31-13.23V106a20.79,20.79,0,0,0-2-9.09,15.81,15.81,0,0,0-5.52-6.52,14.08,14.08,0,0,0-8-2.35,13.85,13.85,0,0,0-11.16,5.21q-4.32,5.2-4.32,13.12Z"/><path class="cls-11" d="M489.11,96.12a16.65,16.65,0,0,1,5.76-7.36,14.28,14.28,0,0,1,8.42-2.69q6.43,0,9.55,3.64t3.16,11v26.08h-2V100.65q0-6.42-2.63-9.51c-1.72-2-4.46-3.08-8.2-3.08a12.45,12.45,0,0,0-9,3.68,18.57,18.57,0,0,0-5.11,9.46v25.58h-2v-40h2Z"/><rect class="cls-12" x="27.33" y="46.95" width="100.37" height="100.37" rx="14.86" ry="14.86"/><path id="STRUCTURE" class="cls-13" d="M96,64a25.91,25.91,0,0,0-18.32-7.69h-.4A26.07,26.07,0,0,0,60.35,102a38.28,38.28,0,0,1,10.86,16.34l.23.66a.7.7,0,0,0,.65.49l1.65,6.62a2.2,2.2,0,0,0-2.18,2.2v7.52a2.19,2.19,0,0,0,2.19,2.2h7.53a2.19,2.19,0,0,0,2.19-2.2v-7.52a2.2,2.2,0,0,0-2.18-2.2l1.65-6.62a.7.7,0,0,0,.65-.49l.23-.66a39.85,39.85,0,0,1,11.1-16.56A26.07,26.07,0,0,0,96,64Zm-18.5-6.24h0c.21,0,.76.19,1.49,1.64a23.18,23.18,0,0,1,1.67,5.26,88.4,88.4,0,0,1,1.58,17.72,85.88,85.88,0,0,1-1.8,18.7,97,97,0,0,0-2,12h-1.9a91.62,91.62,0,0,0-2-11.8,85.12,85.12,0,0,1-1.85-18.91,88,88,0,0,1,1.6-17.74C75.52,59.17,76.89,57.72,77.51,57.72Zm-6.93,55.33a39,39,0,0,0-9.28-12.17,24.68,24.68,0,0,1,9-42.08C64.62,63,60.67,72,60.67,82.34c0,7.46,2,14.57,5.64,19.51a40,40,0,0,1,5.52,11.2Zm-3.1-12c-3.41-4.7-5.37-11.5-5.37-18.66a33.09,33.09,0,0,1,4.57-17.4C69,61.22,72,58.83,75.1,58a20.94,20.94,0,0,0-2.17,6.27,89.58,89.58,0,0,0-1.63,18,85.81,85.81,0,0,0,1.9,19.26,88.82,88.82,0,0,1,1.91,11.45H73.35A41.75,41.75,0,0,0,67.48,101Zm9.31,18.46v6.62H75.23l-1.65-6.62Zm3,6.62H78.24v-6.62h3.2Zm1.89-13H79.92a97.78,97.78,0,0,1,2-11.67,86.43,86.43,0,0,0,1.85-19,89.84,89.84,0,0,0-1.61-18A20.93,20.93,0,0,0,79.94,58c7.33,1.87,13,12.09,13,24.32,0,7-1.91,13.77-5.23,18.45A44.87,44.87,0,0,0,81.69,113.05ZM94,100.67a41.82,41.82,0,0,0-9.49,12.38H83.21a43,43,0,0,1,5.66-11.42c3.49-4.92,5.49-11.95,5.49-19.29a34.46,34.46,0,0,0-4.8-18.25,19.29,19.29,0,0,0-4.74-5.28A24.64,24.64,0,0,1,94,100.67Z"/></svg>