<svg id="Layer_1" data-name="Layer 1" xmlns="http://www.w3.org/2000/svg" viewBox="0 0 1024 768"><defs><style>.cls-1{fill:#fff;}</style></defs><title>Artboard 1</title><path id="STRUCTURE" class="cls-1" d="M582.93,256.78a99.37,99.37,0,0,0-70.25-29.51h-1.54a100,100,0,0,0-65,175.26,146.48,146.48,0,0,1,41.65,62.67l.87,2.54a2.78,2.78,0,0,0,2.52,1.87l6.31,25.4a8.43,8.43,0,0,0-8.37,8.42V532.3a8.44,8.44,0,0,0,8.43,8.43h28.86a8.44,8.44,0,0,0,8.43-8.43V503.44a8.43,8.43,0,0,0-8.38-8.42l6.32-25.4a2.78,2.78,0,0,0,2.52-1.87l.87-2.54a152.56,152.56,0,0,1,42.58-63.5,100,100,0,0,0,4.16-144.93Zm-70.93-24h.09c.81.05,2.92.76,5.72,6.3,2.35,4.65,4.56,11.64,6.41,20.2,3.9,18.16,6,42.28,6,67.95,0,27.35-2.52,53.5-6.92,71.73a374.57,374.57,0,0,0-7.7,46h-7.29a348.82,348.82,0,0,0-7.52-45.24c-4.52-18.29-7.11-44.72-7.11-72.52,0-25.64,2.18-49.8,6.13-68C504.37,238.39,509.61,232.83,512,232.82ZM485.41,445a149.84,149.84,0,0,0-35.59-46.68A94.66,94.66,0,0,1,484.34,237c-21.8,16.14-37,50.68-37,90.29,0,28.6,7.89,55.87,21.66,74.81,8.67,11.94,15.78,26.38,21.15,43Zm-11.88-46.22c-13.09-18-20.59-44.09-20.59-71.55,0-25.1,6.22-48.8,17.5-66.75,9-14.25,20.21-23.41,32.31-26.51q-4.77,7.68-8.32,24c-4,18.61-6.26,43.2-6.26,69.22,0,28.23,2.65,55.14,7.27,73.85A339.58,339.58,0,0,1,502.78,445H496C490.41,427.18,482.85,411.64,473.53,398.82Zm35.69,70.81V495h-6l-6.31-25.38ZM520.76,495h-6V469.63h12.29ZM528,445h-6.78a365.71,365.71,0,0,1,7.52-44.73c4.49-18.64,7.07-45.26,7.07-73,0-26-2.2-50.59-6.19-69.12-2.35-10.95-5.15-19-8.35-24.15,28.14,7.16,49.77,46.36,49.77,93.27,0,27-7.3,52.8-20,70.77A171.52,171.52,0,0,0,528,445Zm47-47.45A160.5,160.5,0,0,0,538.67,445h-4.81a164.87,164.87,0,0,1,21.7-43.78c13.38-18.89,21.06-45.85,21.06-74,0-26.37-6.54-51.24-18.41-70A74.58,74.58,0,0,0,540,237a94.49,94.49,0,0,1,35.06,160.56Z"/></svg>