<svg xmlns="http://www.w3.org/2000/svg" xmlns:xlink="http://www.w3.org/1999/xlink" viewBox="0 0 100 100"><defs><style>.cls-1{fill:#e1e1e1;stroke-miterlimit:10;stroke:url(#New_Gradient_Swatch_3);}.cls-2{fill:#fff;}</style><linearGradient id="New_Gradient_Swatch_3" x1="1.2" y1="50" x2="98.8" y2="50" gradientUnits="userSpaceOnUse"><stop offset="0" stop-color="#ffac1b"/><stop offset="1" stop-color="#e10b90"/></linearGradient></defs><title>Artboard 24</title><g id="ICONS"><g id="EMPTY_STATE" data-name="EMPTY STATE"><circle class="cls-1" cx="50" cy="50" r="48.3"/></g><path class="cls-2" d="M56.74,59.08V57.23a10,10,0,0,0,4.5-8.35c0-5.59,0-10.11-6.75-10.11s-6.74,4.52-6.74,10.11a10,10,0,0,0,4.5,8.35v1.85c-7.62.62-13.49,4.37-13.49,8.9H70.22C70.22,63.45,64.36,59.7,56.74,59.08Z"/><path class="cls-2" d="M41.26,60a21.44,21.44,0,0,1,7-2.83,12.21,12.21,0,0,1-1.42-2.07,12.82,12.82,0,0,1-1.63-6.17c0-3,0-5.88,1.07-8.21a7.32,7.32,0,0,1,5.59-4.2C51.3,33.79,49.71,32,45.51,32c-6.75,0-6.75,4.53-6.75,10.12a10,10,0,0,0,4.5,8.35v1.85c-7.62.62-13.48,4.37-13.48,8.89h9.79A15,15,0,0,1,41.26,60Z"/></g></svg>