<svg xmlns="http://www.w3.org/2000/svg" viewBox="0 0 100 100"><defs><style>.cls-1{fill:#b3b3b3;}.cls-2{fill:#f2f2f2;}</style></defs><title>Artboard 21</title><g id="ICONS"><g id="EMPTY_STATE" data-name="EMPTY STATE"><circle class="cls-1" cx="50" cy="50" r="48.3"/><path id="STRUCTURE" class="cls-2" d="M67.92,17.85a25.13,25.13,0,0,0-17.75-7.46h-.39a25.37,25.37,0,0,0-25,25.26,25.29,25.29,0,0,0,8.63,19A37.13,37.13,0,0,1,43.89,70.52l.22.64a.71.71,0,0,0,.63.48l1.6,6.41a2.14,2.14,0,0,0-2.12,2.13v7.3a2.14,2.14,0,0,0,2.13,2.13h7.3a2.14,2.14,0,0,0,2.13-2.13v-7.3a2.14,2.14,0,0,0-2.12-2.13l1.6-6.41a.71.71,0,0,0,.63-.48l.22-.64a38.61,38.61,0,0,1,10.76-16,25.27,25.27,0,0,0,1-36.63ZM50,11.8h0c.21,0,.74.19,1.45,1.59a22.93,22.93,0,0,1,1.62,5.1,86.28,86.28,0,0,1,1.53,17.17,82.92,82.92,0,0,1-1.75,18.13,95.51,95.51,0,0,0-1.95,11.63H49.08A89.21,89.21,0,0,0,47.18,54a82.08,82.08,0,0,1-1.8-18.33,85.1,85.1,0,0,1,1.55-17.19C48.07,13.21,49.4,11.8,50,11.8ZM43.28,65.42a37.88,37.88,0,0,0-9-11.79A23.91,23.91,0,0,1,43,12.85c-5.51,4.08-9.34,12.8-9.34,22.81,0,7.23,2,14.12,5.47,18.91a38.56,38.56,0,0,1,5.35,10.85Zm-3-11.68C37,49.19,35.07,42.6,35.07,35.66A32,32,0,0,1,39.5,18.8c2.26-3.6,5.1-5.92,8.16-6.7a20.28,20.28,0,0,0-2.1,6.07A86.61,86.61,0,0,0,44,35.66a83.32,83.32,0,0,0,1.84,18.67,86.14,86.14,0,0,1,1.85,11.09H46A40.59,40.59,0,0,0,40.28,53.74Zm9,17.9v6.41H47.79l-1.6-6.41Zm2.91,6.41H50.7V71.64h3.11Zm1.84-12.63H52.33a92.62,92.62,0,0,1,1.9-11.3A84.05,84.05,0,0,0,56,35.66,86.87,86.87,0,0,0,54.46,18.2a20.18,20.18,0,0,0-2.11-6.11c7.11,1.82,12.58,11.72,12.58,23.57,0,6.83-1.85,13.35-5.07,17.89A43.17,43.17,0,0,0,54.05,65.42Zm11.88-12a40.72,40.72,0,0,0-9.19,12H55.52A41.72,41.72,0,0,1,61,54.36c3.38-4.77,5.32-11.59,5.32-18.7A33.5,33.5,0,0,0,61.68,18a18.84,18.84,0,0,0-4.6-5.11,23.87,23.87,0,0,1,8.85,40.57Z"/></g></g></svg>