<svg xmlns="http://www.w3.org/2000/svg" xmlns:xlink="http://www.w3.org/1999/xlink" viewBox="0 0 100 100"><defs><style>.cls-1{fill:#f5f5f5;}.cls-2{fill:url(#New_Gradient_Swatch_3);}</style><linearGradient id="New_Gradient_Swatch_3" x1="28.16" y1="50" x2="71.84" y2="50" gradientUnits="userSpaceOnUse"><stop offset="0" stop-color="#ffac1b"/><stop offset="1" stop-color="#e10b90"/></linearGradient></defs><title>Artboard 22</title><g id="ICONS"><g id="EMPTY_STATE" data-name="EMPTY STATE"><circle class="cls-1" cx="50" cy="50" r="48.3"/></g><path id="STRUCTURE" class="cls-2" d="M65.49,22.22a21.7,21.7,0,0,0-15.34-6.45h-.34A21.84,21.84,0,0,0,35.62,54.05a32,32,0,0,1,9.1,13.69l.19.55a.6.6,0,0,0,.55.41l1.38,5.55A1.83,1.83,0,0,0,45,76.09v6.3a1.84,1.84,0,0,0,1.84,1.84h6.3A1.84,1.84,0,0,0,55,82.39v-6.3a1.83,1.83,0,0,0-1.83-1.84l1.38-5.55a.6.6,0,0,0,.55-.41l.19-.55a33.33,33.33,0,0,1,9.3-13.87,21.83,21.83,0,0,0,.91-31.65ZM50,17h0c.18,0,.64.17,1.25,1.38a19.81,19.81,0,0,1,1.4,4.41A74.32,74.32,0,0,1,54,37.61a71.59,71.59,0,0,1-1.51,15.66A81.51,81.51,0,0,0,50.8,63.33H49.21a76.63,76.63,0,0,0-1.65-9.88A71.35,71.35,0,0,1,46,37.61a73.08,73.08,0,0,1,1.34-14.86C48.33,18.2,49.48,17,50,17ZM44.19,63.33a32.42,32.42,0,0,0-7.77-10.19A20.67,20.67,0,0,1,44,17.89C39.2,21.42,35.89,29,35.89,37.61c0,6.25,1.72,12.2,4.73,16.34a33.79,33.79,0,0,1,4.62,9.38ZM41.6,53.24c-2.86-3.94-4.5-9.63-4.5-15.63A27.76,27.76,0,0,1,40.92,23c2-3.11,4.42-5.11,7.06-5.79a17.64,17.64,0,0,0-1.82,5.25A75,75,0,0,0,44.8,37.61a72.71,72.71,0,0,0,1.58,16.13A74.62,74.62,0,0,1,48,63.33H46.51A35.12,35.12,0,0,0,41.6,53.24ZM49.39,68.7v5.55h-1.3L46.71,68.7Zm2.52,5.55h-1.3V68.7h2.68ZM53.5,63.33H52a79.24,79.24,0,0,1,1.64-9.77,73,73,0,0,0,1.54-16,75.22,75.22,0,0,0-1.35-15.09A17.13,17.13,0,0,0,52,17.24C58.17,18.8,62.9,27.37,62.9,37.61c0,5.9-1.6,11.53-4.38,15.46A37.56,37.56,0,0,0,53.5,63.33ZM63.77,53a35,35,0,0,0-8,10.36h-1a36.18,36.18,0,0,1,4.74-9.56c2.93-4.13,4.6-10,4.6-16.16a29,29,0,0,0-4-15.29,16.36,16.36,0,0,0-4-4.42A20.64,20.64,0,0,1,63.77,53Z"/></g></svg>